<mxfile host="app.diagrams.net" modified="2021-06-23T16:07:19.748Z" agent="5.0 (Windows NT 10.0; Win64; x64) AppleWebKit/537.36 (KHTML, like Gecko) Chrome/91.0.4472.106 Safari/537.36" etag="DX6FP5a-xQq0MyZjYeR1" version="14.7.6" type="github">
  <diagram id="AK-iGJzDlFNvxhwOBNrH" name="Page-1">
    <mxGraphModel dx="1422" dy="794" grid="1" gridSize="10" guides="1" tooltips="1" connect="1" arrows="1" fold="1" page="1" pageScale="1" pageWidth="1169" pageHeight="827" math="0" shadow="0">
      <root>
        <mxCell id="0" />
        <mxCell id="1" parent="0" />
        <mxCell id="LPzL33VYbBDLn--UWzNz-11" style="edgeStyle=orthogonalEdgeStyle;rounded=0;orthogonalLoop=1;jettySize=auto;html=1;entryX=1;entryY=0.5;entryDx=0;entryDy=0;exitX=0.5;exitY=1;exitDx=0;exitDy=0;" edge="1" parent="1" source="LPzL33VYbBDLn--UWzNz-1" target="LPzL33VYbBDLn--UWzNz-2">
          <mxGeometry relative="1" as="geometry">
            <mxPoint x="650" y="250" as="targetPoint" />
          </mxGeometry>
        </mxCell>
        <mxCell id="LPzL33VYbBDLn--UWzNz-1" value="Loading" style="shape=module;align=left;spacingLeft=20;align=center;verticalAlign=top;" vertex="1" parent="1">
          <mxGeometry x="680" y="140" width="100" height="50" as="geometry" />
        </mxCell>
        <mxCell id="LPzL33VYbBDLn--UWzNz-2" value="Models" style="shape=module;align=left;spacingLeft=20;align=center;verticalAlign=top;" vertex="1" parent="1">
          <mxGeometry x="510" y="262" width="120" height="62" as="geometry" />
        </mxCell>
        <mxCell id="LPzL33VYbBDLn--UWzNz-13" style="edgeStyle=orthogonalEdgeStyle;rounded=0;orthogonalLoop=1;jettySize=auto;html=1;entryX=0.308;entryY=1;entryDx=0;entryDy=0;entryPerimeter=0;" edge="1" parent="1" source="LPzL33VYbBDLn--UWzNz-3" target="LPzL33VYbBDLn--UWzNz-2">
          <mxGeometry relative="1" as="geometry" />
        </mxCell>
        <mxCell id="LPzL33VYbBDLn--UWzNz-14" style="edgeStyle=orthogonalEdgeStyle;rounded=0;orthogonalLoop=1;jettySize=auto;html=1;" edge="1" parent="1" source="LPzL33VYbBDLn--UWzNz-3" target="LPzL33VYbBDLn--UWzNz-7">
          <mxGeometry relative="1" as="geometry" />
        </mxCell>
        <mxCell id="LPzL33VYbBDLn--UWzNz-3" value="Rendering" style="shape=module;align=left;spacingLeft=20;align=center;verticalAlign=top;" vertex="1" parent="1">
          <mxGeometry x="290" y="408" width="100" height="50" as="geometry" />
        </mxCell>
        <mxCell id="LPzL33VYbBDLn--UWzNz-20" style="edgeStyle=orthogonalEdgeStyle;rounded=0;orthogonalLoop=1;jettySize=auto;html=1;" edge="1" parent="1" source="LPzL33VYbBDLn--UWzNz-4" target="LPzL33VYbBDLn--UWzNz-2">
          <mxGeometry relative="1" as="geometry" />
        </mxCell>
        <mxCell id="LPzL33VYbBDLn--UWzNz-22" style="edgeStyle=orthogonalEdgeStyle;rounded=0;orthogonalLoop=1;jettySize=auto;html=1;" edge="1" parent="1" source="LPzL33VYbBDLn--UWzNz-4" target="LPzL33VYbBDLn--UWzNz-3">
          <mxGeometry relative="1" as="geometry" />
        </mxCell>
        <mxCell id="LPzL33VYbBDLn--UWzNz-23" style="edgeStyle=orthogonalEdgeStyle;rounded=0;orthogonalLoop=1;jettySize=auto;html=1;" edge="1" parent="1" source="LPzL33VYbBDLn--UWzNz-4" target="LPzL33VYbBDLn--UWzNz-7">
          <mxGeometry relative="1" as="geometry" />
        </mxCell>
        <mxCell id="LPzL33VYbBDLn--UWzNz-4" value="Editor" style="shape=module;align=left;spacingLeft=20;align=center;verticalAlign=top;" vertex="1" parent="1">
          <mxGeometry x="290" y="268" width="100" height="50" as="geometry" />
        </mxCell>
        <mxCell id="LPzL33VYbBDLn--UWzNz-19" style="edgeStyle=orthogonalEdgeStyle;rounded=0;orthogonalLoop=1;jettySize=auto;html=1;" edge="1" parent="1" source="LPzL33VYbBDLn--UWzNz-5" target="LPzL33VYbBDLn--UWzNz-2">
          <mxGeometry relative="1" as="geometry" />
        </mxCell>
        <mxCell id="LPzL33VYbBDLn--UWzNz-25" style="edgeStyle=orthogonalEdgeStyle;rounded=0;orthogonalLoop=1;jettySize=auto;html=1;" edge="1" parent="1" source="LPzL33VYbBDLn--UWzNz-5" target="LPzL33VYbBDLn--UWzNz-7">
          <mxGeometry relative="1" as="geometry" />
        </mxCell>
        <mxCell id="LPzL33VYbBDLn--UWzNz-5" value="PhotoRendering" style="shape=module;align=left;spacingLeft=20;align=center;verticalAlign=top;" vertex="1" parent="1">
          <mxGeometry x="290" y="100" width="120" height="46" as="geometry" />
        </mxCell>
        <mxCell id="LPzL33VYbBDLn--UWzNz-7" value="ViewUI" style="shape=module;align=left;spacingLeft=20;align=center;verticalAlign=top;" vertex="1" parent="1">
          <mxGeometry x="120" y="268" width="100" height="50" as="geometry" />
        </mxCell>
        <mxCell id="LPzL33VYbBDLn--UWzNz-17" style="edgeStyle=orthogonalEdgeStyle;rounded=0;orthogonalLoop=1;jettySize=auto;html=1;entryX=0.75;entryY=1;entryDx=0;entryDy=0;" edge="1" parent="1" source="LPzL33VYbBDLn--UWzNz-8" target="LPzL33VYbBDLn--UWzNz-2">
          <mxGeometry relative="1" as="geometry" />
        </mxCell>
        <mxCell id="LPzL33VYbBDLn--UWzNz-8" value="ModelPreservers" style="shape=module;align=left;spacingLeft=20;align=center;verticalAlign=top;" vertex="1" parent="1">
          <mxGeometry x="540" y="450" width="120" height="61" as="geometry" />
        </mxCell>
        <mxCell id="LPzL33VYbBDLn--UWzNz-18" style="edgeStyle=orthogonalEdgeStyle;rounded=0;orthogonalLoop=1;jettySize=auto;html=1;" edge="1" parent="1" source="LPzL33VYbBDLn--UWzNz-9" target="LPzL33VYbBDLn--UWzNz-5">
          <mxGeometry relative="1" as="geometry" />
        </mxCell>
        <mxCell id="LPzL33VYbBDLn--UWzNz-9" value="PhotoPreservers" style="shape=module;align=left;spacingLeft=20;align=center;verticalAlign=top;" vertex="1" parent="1">
          <mxGeometry x="290" y="178" width="120" height="61" as="geometry" />
        </mxCell>
        <mxCell id="LPzL33VYbBDLn--UWzNz-12" style="edgeStyle=orthogonalEdgeStyle;rounded=0;orthogonalLoop=1;jettySize=auto;html=1;" edge="1" parent="1" source="LPzL33VYbBDLn--UWzNz-10" target="LPzL33VYbBDLn--UWzNz-1">
          <mxGeometry relative="1" as="geometry" />
        </mxCell>
        <mxCell id="LPzL33VYbBDLn--UWzNz-15" style="edgeStyle=orthogonalEdgeStyle;rounded=0;orthogonalLoop=1;jettySize=auto;html=1;" edge="1" parent="1" source="LPzL33VYbBDLn--UWzNz-10" target="LPzL33VYbBDLn--UWzNz-7">
          <mxGeometry relative="1" as="geometry" />
        </mxCell>
        <mxCell id="LPzL33VYbBDLn--UWzNz-16" style="edgeStyle=orthogonalEdgeStyle;rounded=0;orthogonalLoop=1;jettySize=auto;html=1;" edge="1" parent="1" source="LPzL33VYbBDLn--UWzNz-10" target="LPzL33VYbBDLn--UWzNz-5">
          <mxGeometry relative="1" as="geometry" />
        </mxCell>
        <mxCell id="LPzL33VYbBDLn--UWzNz-24" style="edgeStyle=orthogonalEdgeStyle;rounded=0;orthogonalLoop=1;jettySize=auto;html=1;" edge="1" parent="1" source="LPzL33VYbBDLn--UWzNz-10" target="LPzL33VYbBDLn--UWzNz-2">
          <mxGeometry relative="1" as="geometry" />
        </mxCell>
        <mxCell id="LPzL33VYbBDLn--UWzNz-10" value="Main" style="shape=module;align=left;spacingLeft=20;align=center;verticalAlign=top;" vertex="1" parent="1">
          <mxGeometry x="520" y="40" width="100" height="50" as="geometry" />
        </mxCell>
      </root>
    </mxGraphModel>
  </diagram>
</mxfile>
